<?xml version="1.0" ?>
<!DOCTYPE svg  PUBLIC '-//W3C//DTD SVG 1.1//EN'  'http://www.w3.org/Graphics/SVG/1.1/DTD/svg11.dtd'>
<!-- Uploaded to: SVG Repo, www.svgrepo.com, Generator: SVG Repo Mixer Tools -->
<svg width="800px" height="800px" viewBox="0 0 48 48" enable-background="new 0 0 48 48" id="Layer_3" version="1.1" xml:space="preserve" xmlns="http://www.w3.org/2000/svg" xmlns:xlink="http://www.w3.org/1999/xlink">
<g>
<path d="M20.012,4.661c-2.212,0.573-4.284,1.494-6.129,2.735L10.89,4.402l-5.656,5.657l3.042,3.042   c-1.163,1.784-2.036,3.766-2.583,5.883h-4.66v10.031h4.66c0.56,2.165,1.458,4.193,2.66,6.009l-3.118,3.118l5.656,5.656l3.119-3.118   c1.819,1.205,3.853,2.104,6.023,2.664V48h4.062v-8.047C15.697,39.465,9.032,32.52,9.032,24c0-8.521,6.665-15.465,15.062-15.953V0   h-4.083V4.661z" fill="#241F20"/>
<path d="M16.032,24c0,4.654,3.532,8.482,8.062,8.951v-4.046c-2.312-0.439-4.062-2.465-4.062-4.905   c0-2.44,1.75-4.466,4.062-4.905v-4.046C19.564,15.518,16.032,19.346,16.032,24z" fill="#241F20"/>
<path d="M39.248,25.986V14.133C39.248,6.94,33.933,1.005,27.019,0v4.056c4.344,0.887,7.683,4.512,8.153,8.992v1.085   v0.508v0.607v8.874v1.865v1.004l5.466,12.963H30.259h-3.24h-0.062V48h3.303v-0.006C30.28,47.994,30.3,48,30.321,48   c1.29,0,2.336-1.046,2.336-2.336v-2.31h9.415h0.46h4.436L39.248,25.986z" fill="#241F20"/>
</g>
</svg>